HIERARCHY
ROOT Hips
{
	OFFSET 0.000000 0.000000 0.000000
	CHANNELS 6 Xposition Yposition Zposition Xrotation Yrotation Zrotation
	JOINT Spine
	{
		OFFSET 0.000000 -0.000000 1.489414
		CHANNELS 6 Xposition Yposition Zposition Xrotation Yrotation Zrotation
		JOINT Spine1
		{
			OFFSET 0.000000 -0.000001 4.064482
			CHANNELS 6 Xposition Yposition Zposition Xrotation Yrotation Zrotation
			JOINT Neck
			{
				OFFSET 0.000000 -0.000001 4.427754
				CHANNELS 6 Xposition Yposition Zposition Xrotation Yrotation Zrotation
				JOINT Head
				{
					OFFSET 0.000000 -0.363272 2.815356
					CHANNELS 6 Xposition Yposition Zposition Xrotation Yrotation Zrotation
					End Site
					{
						OFFSET 0.000000 -0.000001 3.632717
					}
				}
			}
			JOINT LeftShoulder
			{
				OFFSET 0.731535 0.096024 3.575184
				CHANNELS 6 Xposition Yposition Zposition Xrotation Yrotation Zrotation
				JOINT LeftArm
				{
					OFFSET 2.610319 0.000000 0.000000
					CHANNELS 6 Xposition Yposition Zposition Xrotation Yrotation Zrotation
					JOINT LeftForeArm
					{
						OFFSET 5.118421 0.000000 0.000000
						CHANNELS 6 Xposition Yposition Zposition Xrotation Yrotation Zrotation
						JOINT LeftHand
						{
							OFFSET 4.756909 0.000000 0.000000
							CHANNELS 6 Xposition Yposition Zposition Xrotation Yrotation Zrotation
							End Site
							{
								OFFSET 2.724539 0.000000 0.000000
							}
						}
					}
				}
			}
			JOINT RightShoulder
			{
				OFFSET -0.721442 0.096024 3.575184
				CHANNELS 6 Xposition Yposition Zposition Xrotation Yrotation Zrotation
				JOINT RightArm
				{
					OFFSET -2.610319 0.000000 0.000000
					CHANNELS 6 Xposition Yposition Zposition Xrotation Yrotation Zrotation
					JOINT RightForeArm
					{
						OFFSET -5.118422 0.000000 0.000000
						CHANNELS 6 Xposition Yposition Zposition Xrotation Yrotation Zrotation
						JOINT RightHand
						{
							OFFSET -4.756909 0.000000 0.000000
							CHANNELS 6 Xposition Yposition Zposition Xrotation Yrotation Zrotation
							End Site
							{
								OFFSET -2.724539 0.000000 0.000000
							}
						}
					}
				}
			}
		}
	}
	JOINT LeftUpLeg
	{
		OFFSET 1.816359 0.000000 0.000000
		CHANNELS 6 Xposition Yposition Zposition Xrotation Yrotation Zrotation
		JOINT LeftLeg
		{
			OFFSET 0.000000 0.000001 -7.638974
			CHANNELS 6 Xposition Yposition Zposition Xrotation Yrotation Zrotation
			JOINT LeftFoot
			{
				OFFSET 0.000000 0.000001 -8.008609
				CHANNELS 6 Xposition Yposition Zposition Xrotation Yrotation Zrotation
				JOINT LeftToeBase
				{
					OFFSET 0.000000 -2.724539 -1.180634
					CHANNELS 6 Xposition Yposition Zposition Xrotation Yrotation Zrotation
					End Site
					{
						OFFSET 0.000000 -0.726544 0.000000
					}
				}
			}
		}
	}
	JOINT RightUpLeg
	{
		OFFSET -1.816359 0.000000 0.000000
		CHANNELS 6 Xposition Yposition Zposition Xrotation Yrotation Zrotation
		JOINT RightLeg
		{
			OFFSET 0.000000 0.000001 -7.638974
			CHANNELS 6 Xposition Yposition Zposition Xrotation Yrotation Zrotation
			JOINT RightFoot
			{
				OFFSET 0.000000 0.000001 -8.008609
				CHANNELS 6 Xposition Yposition Zposition Xrotation Yrotation Zrotation
				JOINT RightToeBase
				{
					OFFSET 0.000000 -2.724539 -1.180634
					CHANNELS 6 Xposition Yposition Zposition Xrotation Yrotation Zrotation
					End Site
					{
						OFFSET 0.000000 -0.726544 0.000000
					}
				}
			}
		}
	}
}
MOTION
Frames: 4
Frame Time: 0.041667
1.266585 0.147483 16.001276 3.682464 -0.731901 1.171363 0.000000 -0.000000 1.489414 -18.249675 1.984786 -1.755210 -0.000000 -0.000002 4.064483 18.384071 -4.883034 0.085471 -0.000000 -0.000001 4.427755 9.902632 -5.723357 5.228047 0.000001 -0.363272 2.815359 5.662383 5.697301 6.096323 0.731535 0.096024 3.575188 -8.795696 -20.886556 -0.031227 2.610321 0.000000 0.000002 0.403582 14.356281 -10.985670 5.118421 -0.000000 -0.000002 -9.435003 -4.977314 -9.410013 4.756912 -0.000001 0.000002 -8.980113 7.301199 -0.714734 -0.721442 0.096024 3.575186 -2.362087 17.743267 -9.808515 -2.610319 -0.000001 -0.000002 28.311310 1.799531 22.147387 -5.118419 -0.000001 -0.000001 -44.639835 38.626557 106.637776 -4.756911 0.000001 0.000002 5.546038 34.470076 0.673334 1.816359 -0.000000 -0.000000 -6.905174 2.488188 -1.828544 -0.000000 0.000001 -7.638973 13.558808 -0.938095 1.840758 -0.000000 0.000001 -8.008608 -5.540316 -2.784888 21.492811 -0.000001 -2.724539 -1.180634 0.000002 0.000000 -0.000001 -1.816359 -0.000000 0.000000 -5.828649 -1.222834 0.772102 0.000000 0.000001 -7.638973 12.778532 -1.886402 -0.740982 -0.000000 0.000001 -8.008610 -12.182695 1.096953 -21.139234 0.000000 -2.724539 -1.180634 -0.000001 -0.000000 -0.000001 
1.272045 0.150490 16.002228 3.756505 -0.754983 1.175603 -0.000000 -0.000000 1.489413 -18.220342 1.985338 -1.753106 0.000000 -0.000002 4.064483 18.298861 -4.863902 0.079614 0.000000 -0.000000 4.427752 9.864345 -5.711247 5.244776 -0.000000 -0.363274 2.815359 5.649159 5.697973 6.115754 0.731535 0.096024 3.575184 -8.769515 -20.866662 0.000667 2.610319 -0.000000 -0.000003 0.281748 14.384805 -10.990598 5.118423 -0.000000 0.000002 -9.379831 -4.956870 -9.405547 4.756910 -0.000000 0.000003 -8.926731 7.308833 -0.715127 -0.721442 0.096025 3.575185 -2.354295 17.765136 -9.775716 -2.610319 -0.000000 -0.000002 28.376327 1.751714 22.097076 -5.118419 -0.000002 -0.000002 -44.780073 38.618702 106.751520 -4.756909 0.000003 0.000002 5.503256 34.467283 0.623076 1.816359 0.000000 -0.000001 -7.490296 2.527952 -1.811886 0.000000 0.000001 -7.638974 14.543319 -0.864301 1.551137 -0.000000 0.000001 -8.008609 -5.837514 -2.884188 21.787339 -0.000000 -2.724539 -1.180634 0.000003 0.000000 -0.000002 -1.816359 0.000000 -0.000001 -5.921817 -1.130955 0.788962 0.000000 0.000001 -7.638975 12.802373 -1.979047 -0.718780 -0.000000 0.000001 -8.008608 -12.188109 1.119330 -21.152136 -0.000000 -2.724539 -1.180633 0.000001 0.000000 0.000002 
1.278333 0.154317 16.003475 3.831598 -0.777744 1.195943 -0.000000 -0.000000 1.489415 -18.167895 1.987260 -1.761438 0.000000 -0.000001 4.064483 18.191333 -4.845483 0.069462 -0.000000 -0.000001 4.427752 9.802202 -5.681941 5.256056 -0.000000 -0.363272 2.815351 5.664298 5.676378 6.126842 0.731535 0.096024 3.575182 -8.746689 -20.853601 0.020963 2.610318 0.000000 -0.000001 0.267362 14.411619 -10.987640 5.118423 -0.000000 -0.000001 -9.394864 -4.953708 -9.430747 4.756914 0.000001 -0.000002 -8.941366 7.294079 -0.709746 -0.721442 0.096024 3.575181 -2.360490 17.777690 -9.779097 -2.610318 -0.000000 -0.000007 28.418559 1.739839 22.078523 -5.118419 -0.000001 0.000001 -44.887296 38.632735 106.843276 -4.756908 0.000000 -0.000000 5.496149 34.428876 0.595996 1.816359 -0.000000 0.000000 -8.137055 2.573362 -1.760482 -0.000000 0.000001 -7.638974 15.652649 -0.804889 1.316780 0.000000 0.000001 -8.008609 -6.214794 -3.177379 21.913982 -0.000000 -2.724539 -1.180634 0.000002 -0.000000 -0.000005 -1.816359 -0.000000 0.000001 -6.018948 -1.034283 0.807513 -0.000000 0.000001 -7.638976 12.818973 -2.080409 -0.740420 -0.000000 0.000001 -8.008608 -12.183917 1.117297 -21.157319 -0.000000 -2.724539 -1.180634 -0.000001 0.000001 -0.000000 
1.285880 0.158497 16.004795 3.903463 -0.799815 1.246187 0.000000 -0.000000 1.489416 -18.108611 1.967940 -1.791209 0.000000 -0.000001 4.064483 18.082823 -4.786714 0.047042 -0.000000 -0.000001 4.427757 9.748555 -5.666390 5.265807 0.000000 -0.363273 2.815355 5.642709 5.664517 6.139094 0.731535 0.096024 3.575184 -8.700860 -20.858824 0.054604 2.610320 0.000000 -0.000001 0.228508 14.443258 -11.003155 5.118423 -0.000000 -0.000000 -9.408088 -4.954542 -9.434977 4.756910 0.000001 0.000003 -8.957126 7.310728 -0.664358 -0.721442 0.096024 3.575190 -2.332681 17.771582 -9.792999 -2.610320 -0.000000 -0.000001 28.308622 1.696217 22.063953 -5.118419 -0.000002 -0.000001 -44.737661 37.991298 106.744225 -4.756910 0.000001 -0.000000 3.533639 33.119796 4.783392 1.816359 -0.000000 0.000002 -8.841881 2.627155 -1.810582 -0.000000 0.000001 -7.638974 16.893617 -0.718429 0.943989 0.000000 0.000001 -8.008608 -6.802963 -3.351379 22.295575 0.000000 -2.724538 -1.180634 0.000001 -0.000000 0.000000 -1.816359 -0.000000 0.000002 -6.114562 -0.929394 0.825905 0.000000 0.000001 -7.638971 12.826421 -2.187456 -1.148761 -0.000000 0.000001 -8.008610 -12.167613 1.060417 -20.808757 -0.000000 -2.724539 -1.180634 0.000000 0.000001 -0.000001 
